<svg width="190" height="179" viewBox="0 0 190 179" fill="none" xmlns="http://www.w3.org/2000/svg">
<path d="M124.435 130.906C160.645 130.906 189.999 101.602 189.999 65.4538C189.999 29.3054 160.645 0.00134277 124.435 0.00134277C88.2252 0.00134277 58.8712 29.3054 58.8712 65.4538C58.8712 101.602 88.2252 130.906 124.435 130.906Z" fill="#F3FAFF"/>
<path d="M82.4658 178.999C98.6113 178.999 111.7 165.932 111.7 149.814C111.7 133.697 98.6113 120.63 82.4658 120.63C66.3204 120.63 53.2319 133.697 53.2319 149.814C53.2319 165.932 66.3204 178.999 82.4658 178.999Z" fill="#E6EDFF"/>
<path d="M162.314 59.97L20.9609 70.9518L28.3904 166.255L169.743 155.273L162.314 59.97Z" fill="#7EBEEF"/>
<path d="M161.28 46.7111L19.9271 57.693L20.9607 70.9517L162.314 59.9699L161.28 46.7111Z" fill="#435E6D"/>
<path d="M29.7213 62.0065L27.7034 62.1677C27.3069 62.1994 27.0112 62.5459 27.0429 62.9418L27.2044 64.9561C27.2361 65.352 27.5832 65.6472 27.9797 65.6155L29.9976 65.4544C30.3941 65.4227 30.6898 65.0761 30.6581 64.6803L30.4966 62.6659C30.4649 62.2701 30.1178 61.9749 29.7213 62.0065Z" fill="#E6EDFF"/>
<path d="M37.122 61.4138L35.1042 61.5749C34.7077 61.6066 34.4119 61.9531 34.4437 62.349L34.6051 64.3634C34.6368 64.7592 34.984 65.0544 35.3805 65.0227L37.3983 64.8616C37.7948 64.8299 38.0905 64.4834 38.0588 64.0875L37.8974 62.0732C37.8656 61.6773 37.5185 61.3821 37.122 61.4138Z" fill="#E6EDFF"/>
<path d="M44.2427 60.7445L42.231 60.9008C41.8357 60.9315 41.5401 61.2763 41.5709 61.6709L41.7275 63.6792C41.7582 64.0739 42.1036 64.3689 42.4989 64.3382L44.5107 64.1819C44.906 64.1512 45.2015 63.8063 45.1708 63.4117L45.0142 61.4034C44.9834 61.0088 44.638 60.7137 44.2427 60.7445Z" fill="#E6EDFF"/>
<path opacity="0.3" d="M152.191 67.4833L32.1246 76.8114L32.3801 80.0892L152.446 70.7611L152.191 67.4833Z" fill="#E6EDFF"/>
<path opacity="0.3" d="M68.1287 84.9572L32.9727 87.6885L38.3219 156.307L73.478 153.576L68.1287 84.9572Z" fill="#E6EDFF"/>
<path opacity="0.3" d="M110.584 81.6591L75.4279 84.3904L80.7771 153.009L115.933 150.278L110.584 81.6591Z" fill="#E6EDFF"/>
<path opacity="0.3" d="M153.04 78.3603L117.884 81.0916L123.233 149.71L158.389 146.979L153.04 78.3603Z" fill="#E6EDFF"/>
<g style="mix-blend-mode:multiply" opacity="0.2">
<path d="M19.9927 118.107C31.0344 118.107 39.9855 109.171 39.9855 98.1486C39.9855 87.1257 31.0344 78.1899 19.9927 78.1899C8.95105 78.1899 0 87.1257 0 98.1486C0 109.171 8.95105 118.107 19.9927 118.107Z" fill="#1D366D"/>
</g>
<path d="M35.7576 109.759C43.5653 101.964 43.5653 89.3271 35.7576 81.5327C27.95 73.7384 15.2913 73.7384 7.48362 81.5327C-0.324032 89.3271 -0.324028 101.964 7.48362 109.759C15.2913 117.553 27.95 117.553 35.7576 109.759Z" fill="#FFCB48"/>
<path d="M16.6514 104.621L10.1764 97.444L12.9581 94.9426L16.9274 99.3422L30.7781 86.8892L33.2838 89.6669L16.6514 104.621Z" fill="white"/>
<path d="M122.182 108.342C122.149 108.342 122.116 108.34 122.083 108.337C121.482 108.269 120.869 108.222 120.262 108.19C120.143 108.186 120.025 108.158 119.917 108.108C119.808 108.058 119.71 107.987 119.63 107.899C119.549 107.81 119.486 107.707 119.446 107.595C119.406 107.482 119.388 107.363 119.394 107.244C119.4 107.125 119.43 107.008 119.482 106.9C119.534 106.793 119.607 106.696 119.697 106.617C119.786 106.538 119.891 106.477 120.004 106.439C120.117 106.401 120.237 106.385 120.356 106.393C120.997 106.426 121.642 106.478 122.279 106.548C122.508 106.573 122.718 106.685 122.867 106.86C123.016 107.035 123.093 107.261 123.08 107.491C123.068 107.72 122.968 107.936 122.801 108.095C122.634 108.253 122.412 108.342 122.182 108.342Z" fill="#435E6D"/>
<path d="M118.571 173.68C117.997 173.68 117.414 173.663 116.838 173.634C116.156 173.598 115.468 173.541 114.792 173.465C114.555 173.439 114.337 173.319 114.188 173.132C114.039 172.945 113.971 172.707 113.998 172.47C114.025 172.233 114.145 172.016 114.332 171.867C114.519 171.718 114.758 171.65 114.995 171.677C115.635 171.749 116.288 171.802 116.933 171.836C117.478 171.865 118.031 171.879 118.575 171.881C118.814 171.881 119.044 171.976 119.213 172.144C119.382 172.313 119.477 172.542 119.477 172.781C119.477 173.019 119.382 173.248 119.213 173.417C119.044 173.585 118.814 173.68 118.575 173.68H118.571ZM122.25 173.478C122.019 173.478 121.798 173.389 121.63 173.231C121.463 173.073 121.363 172.857 121.35 172.627C121.338 172.397 121.414 172.171 121.563 171.996C121.712 171.82 121.922 171.709 122.152 171.683C123.34 171.552 124.519 171.353 125.685 171.089C125.801 171.063 125.92 171.06 126.037 171.08C126.154 171.1 126.265 171.142 126.366 171.205C126.466 171.268 126.553 171.351 126.621 171.447C126.689 171.544 126.738 171.653 126.764 171.768C126.791 171.883 126.794 172.003 126.774 172.119C126.754 172.236 126.711 172.347 126.648 172.447C126.585 172.547 126.502 172.634 126.406 172.702C126.309 172.771 126.2 172.819 126.084 172.845C124.853 173.125 123.606 173.334 122.35 173.474C122.317 173.479 122.283 173.481 122.25 173.481V173.478ZM111.259 172.852C111.19 172.852 111.122 172.845 111.056 172.83C109.823 172.549 108.608 172.199 107.415 171.781C107.19 171.702 107.005 171.537 106.901 171.322C106.798 171.107 106.784 170.86 106.863 170.634C106.942 170.409 107.108 170.225 107.323 170.121C107.539 170.018 107.786 170.004 108.012 170.083C109.141 170.478 110.291 170.809 111.457 171.075C111.673 171.124 111.864 171.251 111.993 171.432C112.121 171.612 112.178 171.834 112.153 172.054C112.128 172.274 112.022 172.478 111.856 172.625C111.69 172.772 111.476 172.853 111.254 172.852H111.259ZM129.427 171.85C129.214 171.851 129.008 171.776 128.845 171.638C128.682 171.501 128.573 171.311 128.537 171.101C128.501 170.891 128.541 170.676 128.65 170.493C128.758 170.31 128.928 170.171 129.129 170.101C130.257 169.707 131.361 169.249 132.438 168.731C132.653 168.628 132.901 168.614 133.126 168.692C133.352 168.771 133.537 168.936 133.641 169.151C133.745 169.366 133.759 169.613 133.681 169.839C133.602 170.064 133.436 170.249 133.221 170.353C132.084 170.9 130.916 171.383 129.725 171.8C129.629 171.834 129.529 171.853 129.427 171.854V171.85ZM104.311 170.42C104.175 170.42 104.04 170.389 103.918 170.329C102.781 169.779 101.675 169.167 100.607 168.493C100.41 168.363 100.273 168.161 100.224 167.931C100.175 167.701 100.218 167.461 100.343 167.262C100.469 167.063 100.668 166.921 100.897 166.867C101.127 166.813 101.368 166.85 101.57 166.971C102.581 167.609 103.627 168.189 104.704 168.709C104.887 168.798 105.035 168.947 105.123 169.13C105.211 169.314 105.234 169.522 105.189 169.721C105.143 169.919 105.031 170.096 104.872 170.223C104.712 170.35 104.515 170.419 104.311 170.42ZM136.054 168.663C135.858 168.664 135.667 168.6 135.511 168.483C135.354 168.366 135.24 168.201 135.186 168.013C135.132 167.826 135.14 167.625 135.21 167.443C135.279 167.26 135.407 167.105 135.573 167.001C136.584 166.366 137.56 165.674 138.494 164.93C138.681 164.781 138.92 164.712 139.157 164.739C139.395 164.765 139.612 164.885 139.761 165.072C139.911 165.258 139.979 165.497 139.953 165.734C139.926 165.971 139.806 166.188 139.619 166.337C138.631 167.122 137.601 167.853 136.533 168.525C136.389 168.616 136.223 168.664 136.054 168.665V168.663ZM98.0866 166.497C97.8819 166.497 97.6832 166.427 97.5236 166.299C96.5382 165.51 95.5976 164.667 94.706 163.774C94.5373 163.605 94.4428 163.376 94.4433 163.137C94.4439 162.898 94.5393 162.67 94.7087 162.501C94.8781 162.333 95.1076 162.238 95.3467 162.239C95.5858 162.24 95.8149 162.335 95.9836 162.504C96.8277 163.35 97.7182 164.148 98.651 164.895C98.7966 165.012 98.9024 165.171 98.9536 165.35C99.0049 165.529 98.9992 165.72 98.9372 165.896C98.8753 166.071 98.7602 166.224 98.6078 166.331C98.4554 166.439 98.2733 166.497 98.0866 166.497ZM141.805 164.082C141.626 164.082 141.452 164.029 141.304 163.93C141.156 163.831 141.041 163.69 140.973 163.526C140.904 163.361 140.887 163.18 140.921 163.006C140.956 162.831 141.042 162.671 141.168 162.545C142.014 161.701 142.811 160.811 143.558 159.878C143.632 159.786 143.723 159.709 143.827 159.652C143.93 159.595 144.044 159.559 144.162 159.545C144.279 159.532 144.398 159.542 144.512 159.575C144.626 159.608 144.732 159.663 144.825 159.736C144.917 159.81 144.994 159.901 145.051 160.005C145.109 160.108 145.145 160.222 145.158 160.339C145.171 160.457 145.161 160.576 145.128 160.689C145.095 160.803 145.04 160.909 144.967 161.001C144.178 161.986 143.335 162.927 142.442 163.818C142.358 163.902 142.259 163.968 142.15 164.014C142.04 164.059 141.923 164.082 141.805 164.082ZM92.8946 161.29C92.7589 161.291 92.6249 161.261 92.5026 161.202C92.3802 161.144 92.2727 161.058 92.1881 160.952C91.4022 159.965 90.6721 158.935 90.0012 157.867C89.8742 157.664 89.8329 157.42 89.8864 157.187C89.9399 156.955 90.0838 156.753 90.2864 156.626C90.489 156.499 90.7337 156.458 90.9668 156.511C91.1998 156.565 91.4021 156.708 91.5291 156.911C92.1643 157.922 92.8556 158.898 93.5997 159.832C93.7052 159.965 93.7711 160.124 93.7899 160.292C93.8088 160.461 93.7797 160.631 93.7061 160.783C93.6324 160.936 93.5172 161.064 93.3737 161.154C93.2302 161.244 93.0641 161.292 92.8946 161.292V161.29ZM146.396 158.34C146.235 158.34 146.077 158.297 145.938 158.215C145.8 158.133 145.686 158.016 145.608 157.875C145.53 157.734 145.491 157.575 145.496 157.415C145.501 157.254 145.549 157.097 145.635 156.961C146.271 155.951 146.851 154.905 147.37 153.83C147.421 153.722 147.492 153.626 147.581 153.546C147.669 153.466 147.772 153.405 147.884 153.365C147.996 153.325 148.115 153.308 148.234 153.314C148.353 153.321 148.47 153.351 148.577 153.402C148.684 153.454 148.78 153.526 148.859 153.615C148.938 153.704 148.999 153.807 149.038 153.92C149.077 154.032 149.093 154.151 149.085 154.269C149.078 154.388 149.047 154.504 148.994 154.611C148.446 155.747 147.833 156.852 147.16 157.921C147.079 158.049 146.966 158.155 146.833 158.229C146.699 158.302 146.549 158.34 146.396 158.34ZM149.591 151.72C149.447 151.72 149.305 151.686 149.177 151.62C149.049 151.554 148.939 151.458 148.856 151.341C148.773 151.224 148.719 151.089 148.698 150.947C148.678 150.804 148.692 150.659 148.74 150.524C149.133 149.397 149.463 148.249 149.727 147.085C149.753 146.969 149.802 146.86 149.87 146.764C149.938 146.667 150.025 146.585 150.125 146.522C150.225 146.459 150.337 146.416 150.454 146.396C150.571 146.376 150.69 146.379 150.806 146.405C150.921 146.431 151.03 146.48 151.127 146.548C151.224 146.616 151.306 146.703 151.369 146.803C151.433 146.903 151.475 147.014 151.495 147.131C151.516 147.247 151.512 147.367 151.486 147.482C151.208 148.712 150.859 149.925 150.444 151.116C150.382 151.293 150.267 151.446 150.114 151.554C149.961 151.662 149.778 151.72 149.591 151.72ZM151.215 144.556C151.182 144.556 151.147 144.556 151.115 144.55C150.997 144.537 150.883 144.501 150.78 144.444C150.676 144.387 150.584 144.31 150.51 144.218C150.436 144.126 150.381 144.02 150.348 143.906C150.316 143.793 150.305 143.674 150.318 143.556C150.386 142.936 150.439 142.303 150.471 141.677C150.501 141.115 150.516 140.546 150.516 139.988V139.972C150.519 139.736 150.616 139.51 150.784 139.344C150.953 139.178 151.18 139.085 151.417 139.085C151.656 139.085 151.886 139.179 152.055 139.348C152.224 139.517 152.319 139.746 152.319 139.984V139.995C152.319 140.584 152.303 141.183 152.272 141.773C152.237 142.434 152.183 143.102 152.11 143.757C152.085 143.976 151.98 144.178 151.816 144.326C151.651 144.473 151.438 144.554 151.217 144.555L151.215 144.556ZM151.21 137.209C150.989 137.208 150.775 137.127 150.61 136.979C150.445 136.832 150.34 136.629 150.316 136.41C150.182 135.224 149.981 134.046 149.714 132.883C149.687 132.767 149.684 132.648 149.703 132.531C149.723 132.415 149.765 132.303 149.828 132.202C149.891 132.102 149.973 132.015 150.07 131.946C150.166 131.878 150.275 131.829 150.391 131.802C150.506 131.775 150.626 131.772 150.743 131.791C150.86 131.811 150.972 131.853 151.072 131.916C151.173 131.979 151.26 132.06 151.329 132.157C151.398 132.253 151.447 132.362 151.473 132.477C151.755 133.707 151.967 134.951 152.109 136.205C152.135 136.442 152.067 136.68 151.918 136.867C151.768 137.053 151.551 137.173 151.314 137.2C151.28 137.206 151.245 137.208 151.212 137.208L151.21 137.209ZM149.568 130.048C149.381 130.048 149.199 129.99 149.047 129.882C148.895 129.774 148.78 129.622 148.718 129.446C148.321 128.321 147.861 127.219 147.34 126.146C147.236 125.931 147.222 125.683 147.3 125.458C147.379 125.232 147.544 125.047 147.76 124.943C147.975 124.839 148.223 124.825 148.449 124.903C148.675 124.982 148.86 125.147 148.964 125.362C149.514 126.496 150 127.66 150.42 128.849C150.459 128.961 150.476 129.079 150.47 129.197C150.464 129.315 150.434 129.431 150.383 129.537C150.332 129.644 150.26 129.74 150.172 129.819C150.084 129.898 149.981 129.958 149.869 129.998C149.773 130.031 149.672 130.048 149.57 130.048L149.568 130.048ZM146.363 123.438C146.21 123.439 146.06 123.4 145.927 123.327C145.793 123.253 145.681 123.148 145.599 123.019C144.961 122.01 144.267 121.038 143.521 120.106C143.444 120.014 143.387 119.908 143.352 119.794C143.317 119.679 143.305 119.559 143.317 119.44C143.329 119.321 143.365 119.206 143.422 119.101C143.479 118.996 143.557 118.903 143.65 118.828C143.744 118.754 143.851 118.698 143.966 118.665C144.081 118.633 144.202 118.623 144.321 118.637C144.44 118.652 144.555 118.689 144.659 118.748C144.763 118.807 144.854 118.887 144.927 118.981C145.717 119.966 146.45 120.993 147.125 122.058C147.211 122.194 147.259 122.351 147.264 122.512C147.269 122.673 147.23 122.832 147.152 122.973C147.075 123.114 146.961 123.231 146.822 123.313C146.683 123.395 146.525 123.439 146.364 123.439L146.363 123.438ZM141.761 117.703C141.643 117.703 141.526 117.68 141.417 117.635C141.308 117.59 141.209 117.524 141.125 117.441C140.278 116.598 139.385 115.803 138.449 115.059C138.262 114.911 138.142 114.694 138.115 114.457C138.088 114.22 138.156 113.982 138.305 113.795C138.454 113.608 138.671 113.488 138.908 113.461C139.146 113.434 139.384 113.502 139.572 113.651C140.56 114.436 141.503 115.276 142.398 116.166C142.524 116.292 142.61 116.453 142.645 116.627C142.68 116.802 142.663 116.983 142.594 117.147C142.526 117.312 142.411 117.453 142.262 117.552C142.114 117.651 141.94 117.703 141.761 117.703ZM136.001 113.129C135.832 113.13 135.666 113.083 135.522 112.994C134.509 112.36 133.46 111.783 132.382 111.267C132.176 111.159 132.019 110.974 131.946 110.753C131.873 110.532 131.888 110.291 131.989 110.081C132.09 109.872 132.269 109.709 132.487 109.628C132.706 109.546 132.948 109.553 133.162 109.646C134.3 110.191 135.407 110.8 136.477 111.47C136.643 111.573 136.771 111.728 136.841 111.911C136.911 112.093 136.919 112.293 136.865 112.481C136.811 112.669 136.697 112.834 136.541 112.951C136.384 113.069 136.194 113.132 135.998 113.132L136.001 113.129ZM129.362 109.954C129.261 109.954 129.161 109.937 129.066 109.904C127.935 109.513 126.783 109.186 125.615 108.924C125.382 108.872 125.179 108.729 125.051 108.528C124.923 108.326 124.881 108.082 124.933 107.849C124.985 107.616 125.128 107.414 125.33 107.286C125.532 107.158 125.777 107.116 126.01 107.168C127.244 107.444 128.461 107.79 129.656 108.203C129.857 108.272 130.028 108.411 130.137 108.594C130.245 108.777 130.286 108.993 130.25 109.203C130.215 109.413 130.106 109.603 129.943 109.741C129.78 109.878 129.574 109.953 129.361 109.953L129.362 109.954Z" fill="#435E6D"/>
<path d="M88.9753 155.041C88.8054 155.041 88.639 154.993 88.4954 154.902C88.3517 154.812 88.2366 154.683 88.1633 154.53C87.8866 153.953 87.622 153.361 87.3804 152.769C87.2897 152.548 87.2906 152.301 87.3828 152.08C87.4751 151.86 87.6512 151.686 87.8723 151.595C88.0935 151.505 88.3417 151.505 88.5622 151.598C88.7828 151.69 88.9577 151.865 89.0484 152.086C89.2778 152.646 89.5275 153.206 89.7927 153.752C89.8584 153.889 89.8882 154.041 89.8794 154.192C89.8707 154.344 89.8236 154.491 89.7425 154.62C89.6614 154.749 89.5491 154.855 89.4159 154.928C89.2827 155.002 89.133 155.041 88.9807 155.041H88.9753Z" fill="#435E6D"/>
<g style="mix-blend-mode:multiply" opacity="0.25">
<path d="M143.039 30.9083L56.0145 23.4145L46.1536 137.539L133.178 145.033L143.039 30.9083Z" fill="#C7E6FE"/>
</g>
<path d="M150.314 28.7419L63.5647 18.5532L50.1575 132.317L136.907 142.506L150.314 28.7419Z" fill="white"/>
<path d="M120.14 82.8577L80.1773 78.1669C79.9902 78.145 79.8092 78.0866 79.6447 77.9948C79.4803 77.9031 79.3355 77.7799 79.2187 77.6323C79.102 77.4847 79.0155 77.3155 78.9643 77.1345C78.913 76.9535 78.898 76.7642 78.9201 76.5774L80.6997 61.4649C80.7443 61.0876 80.9372 60.7434 81.2359 60.5081C81.5346 60.2727 81.9147 60.1654 82.2926 60.2098L122.256 64.8998C122.634 64.9443 122.978 65.1369 123.214 65.4351C123.45 65.7332 123.557 66.1127 123.513 66.49L121.732 81.6019C121.688 81.979 121.495 82.3231 121.197 82.5586C120.898 82.794 120.518 82.9016 120.14 82.8577Z" fill="#E6EDFF"/>
<path d="M95.853 56.7018L95.4815 47.0879C95.4039 44.8313 96.2249 42.6359 97.765 40.9823C99.305 39.3286 101.438 38.3513 103.699 38.2643C105.959 38.1773 108.161 38.9876 109.824 40.518C111.487 42.0484 112.475 44.1741 112.572 46.43L112.646 48.37L109.872 48.4768L109.797 46.5367C109.777 45.7735 109.605 45.0219 109.292 44.3254C108.979 43.629 108.531 43.0015 107.973 42.4794C107.415 41.9573 106.758 41.551 106.042 41.284C105.326 41.017 104.563 40.8947 103.799 40.9241C103.035 40.9536 102.284 41.1341 101.59 41.4554C100.897 41.7767 100.274 42.2322 99.7577 42.7957C99.2417 43.3591 98.8429 44.0192 98.5844 44.7377C98.3258 45.4562 98.2128 46.2188 98.2517 46.9812L98.6232 56.5951L95.853 56.7018Z" fill="#435E6D"/>
<path d="M110.914 76.0337L90.9059 73.6849C90.5214 73.6397 90.1707 73.444 89.9308 73.1407C89.6908 72.8375 89.5813 72.4515 89.6263 72.0677L91.9791 52.0935C92.0014 51.9034 92.061 51.7196 92.1545 51.5526C92.248 51.3855 92.3735 51.2384 92.524 51.1198C92.6744 51.0012 92.8468 50.9133 93.0312 50.8612C93.2157 50.8091 93.4086 50.7938 93.599 50.8161L113.607 53.1628C113.798 53.1851 113.983 53.2448 114.15 53.3384C114.318 53.432 114.465 53.5577 114.584 53.7083C114.703 53.8589 114.791 54.0314 114.843 54.2161C114.895 54.4007 114.91 54.5937 114.887 54.7841L112.535 74.7583C112.489 75.1418 112.293 75.4916 111.989 75.7307C111.685 75.9698 111.298 76.0788 110.914 76.0337Z" fill="#F9B93C"/>
<path d="M102.701 59.6477C102.169 59.5842 101.632 59.7051 101.178 59.99C100.725 60.275 100.383 60.7067 100.21 61.2131C100.038 61.7194 100.044 62.2696 100.229 62.7716C100.414 63.2737 100.766 63.6971 101.226 63.971L101.091 65.1376C101.062 65.3895 101.133 65.6428 101.291 65.8419C101.448 66.0411 101.678 66.1699 101.93 66.2002C102.055 66.2149 102.182 66.2048 102.303 66.1706C102.425 66.1363 102.538 66.0786 102.637 66.0006C102.736 65.9226 102.818 65.826 102.88 65.7162C102.941 65.6063 102.98 65.4855 102.995 65.3605L103.13 64.1939C103.641 64.0331 104.08 63.7025 104.376 63.2572C104.672 62.8119 104.806 62.2788 104.755 61.7469C104.705 61.2151 104.473 60.7166 104.099 60.3345C103.725 59.9525 103.231 59.7101 102.699 59.6477H102.701Z" fill="#435E6D"/>
<path d="M125.919 101.12L70.4668 94.6074C69.5768 94.5029 68.7704 95.1384 68.6657 96.0269L66.8429 111.494C66.7382 112.382 67.3748 113.187 68.2648 113.292L123.717 119.804C124.607 119.909 125.414 119.273 125.519 118.385L127.341 102.918C127.446 102.03 126.809 101.225 125.919 101.12Z" fill="#F9B93C"/>
<path d="M80.0119 106.691C80.9194 105.976 81.0743 104.662 80.3578 103.756C79.6414 102.85 78.3248 102.695 77.4173 103.41C76.5098 104.126 76.3549 105.44 77.0714 106.346C77.7878 107.252 79.1043 107.406 80.0119 106.691Z" fill="white"/>
<path d="M89.0659 107.836C90.013 107.174 90.2432 105.871 89.58 104.925C88.9168 103.98 87.6114 103.75 86.6642 104.412C85.717 105.074 85.4869 106.377 86.1501 107.323C86.8133 108.269 88.1187 108.498 89.0659 107.836Z" fill="white"/>
<path d="M98.4982 108.667C99.3158 107.851 99.3158 106.527 98.4982 105.711C97.6806 104.895 96.355 104.895 95.5374 105.711C94.7198 106.527 94.7198 107.851 95.5374 108.667C96.355 109.483 97.6806 109.483 98.4982 108.667Z" fill="white"/>
<path d="M108.253 108.432C108.348 107.282 107.49 106.273 106.337 106.179C105.185 106.085 104.174 106.941 104.08 108.092C103.986 109.242 104.844 110.251 105.996 110.345C107.149 110.439 108.159 109.583 108.253 108.432Z" fill="white"/>
<path d="M116.889 110.727C117.653 109.862 117.57 108.541 116.703 107.777C115.836 107.014 114.513 107.097 113.748 107.962C112.983 108.828 113.066 110.149 113.934 110.912C114.801 111.676 116.124 111.593 116.889 110.727Z" fill="white"/>
<path d="M88.0138 155.524C89.9205 155.524 91.4661 153.981 91.4661 152.077C91.4661 150.174 89.9205 148.631 88.0138 148.631C86.1071 148.631 84.5615 150.174 84.5615 152.077C84.5615 153.981 86.1071 155.524 88.0138 155.524Z" fill="#435E6D"/>
</svg>
