<?xml version="1.0" encoding="UTF-8"?>
<svg version="1.1" xmlns="http://www.w3.org/2000/svg" width="118" height="32">
<path d="M0 0 C38.94 0 77.88 0 118 0 C118 10.56 118 21.12 118 32 C79.06 32 40.12 32 0 32 C0 21.44 0 10.88 0 0 Z " fill="#FCFCFD" transform="translate(0,0)"/>
<path d="M0 0 C3.03560696 1.82136418 4.60600091 3.31945611 6.375 6.375 C7.17298003 9.72651613 7.03027506 11.70311982 6 15 C3.36644356 18.4855894 1.71764175 19.7949595 -2.5 21 C-7.32773113 21 -9.42288871 19.52272814 -12.8125 16.25 C-14.57098729 12.91812934 -14.51262487 10.71653027 -14 7 C-10.36213635 0.96384105 -6.94397328 -0.58847231 0 0 Z " fill="#9AB6CC" transform="translate(79,6)"/>
<path d="M0 0 C0.99 0 1.98 0 3 0 C3.33 2.31 3.66 4.62 4 7 C4 5.02 4 3.04 4 1 C6.97246802 3.54782974 8.41535288 6.45340883 10 10 C10 10.66 10 11.32 10 12 C12.60045875 9.6975881 13.84739183 7.50103323 15.1875 4.3125 C15.70376953 3.10013672 15.70376953 3.10013672 16.23046875 1.86328125 C16.48441406 1.24839844 16.73835938 0.63351563 17 0 C18.65 0 20.3 0 22 0 C22 6.93 22 13.86 22 21 C20.35 21 18.7 21 17 21 C16.67 19.02 16.34 17.04 16 15 C15.01 16.98 14.02 18.96 13 21 C11.68 21 10.36 21 9 21 C8.01 19.02 7.02 17.04 6 15 C5.67 16.98 5.34 18.96 5 21 C3.35 21 1.7 21 0 21 C0 14.07 0 7.14 0 0 Z " fill="#81A5C1" transform="translate(8,6)"/>
<path d="M0 0 C4.95 0 9.9 0 15 0 C15 1.65 15 3.3 15 5 C11.7 5 8.4 5 5 5 C5 5.99 5 6.98 5 8 C7.64 8 10.28 8 13 8 C13 9.65 13 11.3 13 13 C10.36 13 7.72 13 5 13 C5 13.99 5 14.98 5 16 C8.3 16 11.6 16 15 16 C15.33 17.65 15.66 19.3 16 21 C10.72 21 5.44 21 0 21 C0 14.07 0 7.14 0 0 Z " fill="#A7BFD3" transform="translate(94,6)"/>
<path d="M0 0 C3.3 0 6.6 0 10 0 C10.13559675 2.56428515 10.23433188 5.12135216 10.3125 7.6875 C10.3753418 8.7693457 10.3753418 8.7693457 10.43945312 9.87304688 C10.53472184 14.04581678 10.32535745 15.57099375 7.70703125 19.0234375 C5 21 5 21 1.375 20.9375 C-2 20 -2 20 -5 18 C-4.505 16.515 -4.505 16.515 -4 15 C-0.71023192 13.90341064 0.71303767 14.20046862 4 15 C4.33 11.7 4.66 8.4 5 5 C3.35 5 1.7 5 0 5 C0 3.35 0 1.7 0 0 Z " fill="#83A6C2" transform="translate(54,6)"/>
<path d="M0 0 C2.36328125 -0.18359375 2.36328125 -0.18359375 5 0 C7.1875 2.9375 7.1875 2.9375 9 6 C9.66 6.33 10.32 6.66 11 7 C11.28875 6.21625 11.5775 5.4325 11.875 4.625 C13 2 13 2 15 0 C17.625 -0.125 17.625 -0.125 20 0 C18.48652232 3.17830313 17.00278402 5.99631527 14.875 8.8125 C12.48869211 12.86922341 12.20588613 16.36756214 12 21 C10.35 21 8.7 21 7 21 C6.99742188 20.40574219 6.99484375 19.81148437 6.9921875 19.19921875 C6.63929064 11.63546266 3.95813611 6.36691008 0 0 Z " fill="#A9C1D4" transform="translate(31,6)"/>
<path d="M0 0 C4.95 0 9.9 0 15 0 C15 1.65 15 3.3 15 5 C11.7 5 8.4 5 5 5 C5 5.99 5 6.98 5 8 C7.64 8 10.28 8 13 8 C12.67 9.32 12.34 10.64 12 12 C9.36 11.67 6.72 11.34 4 11 C3.87625 9.906875 3.7525 8.81375 3.625 7.6875 C3.24535199 3.92618198 3.24535199 3.92618198 1 1 C1 7.27 1 13.54 1 20 C0.67 20 0.34 20 0 20 C0 13.4 0 6.8 0 0 Z " fill="#7CA2BF" transform="translate(94,6)"/>
<path d="M0 0 C1.8125 1.1875 1.8125 1.1875 3 3 C3.3125 5.5625 3.3125 5.5625 3 8 C1 10 1 10 -2.5 10.25 C-6 10 -6 10 -8 8 C-7.75 4.4375 -7.75 4.4375 -7 1 C-4.45132831 -0.27433584 -2.82594567 -0.27570202 0 0 Z " fill="#F9FBFC" transform="translate(78,11)"/>
<path d="M0 0 C1.65 0 3.3 0 5 0 C5 6.93 5 13.86 5 21 C3.35 21 1.7 21 0 21 C0 14.07 0 7.14 0 0 Z " fill="#80A5C1" transform="translate(87,6)"/>
<path d="M0 0 C0.78375 0.04125 1.5675 0.0825 2.375 0.125 C0.86152232 3.30330313 -0.62221598 6.12131527 -2.75 8.9375 C-5.13630789 12.99422341 -5.41911387 16.49256214 -5.625 21.125 C-6.285 21.125 -6.945 21.125 -7.625 21.125 C-7.13 16.67 -7.13 16.67 -6.625 12.125 C-7.285 11.795 -7.945 11.465 -8.625 11.125 C-7.965 11.125 -7.305 11.125 -6.625 11.125 C-6.625 10.465 -6.625 9.805 -6.625 9.125 C-7.615 8.795 -8.605 8.465 -9.625 8.125 C-9.295 7.465 -8.965 6.805 -8.625 6.125 C-7.965 6.455 -7.305 6.785 -6.625 7.125 C-6.33625 6.34125 -6.0475 5.5575 -5.75 4.75 C-4.32247696 1.4191129 -3.72550733 0.17740511 0 0 Z " fill="#8BABC5" transform="translate(48.625,5.875)"/>
<path d="M0 0 C1.87856012 3.17007021 2.30199548 5.33291202 2 9 C0.90625 11.45703125 0.90625 11.45703125 -0.5 13.8125 C-0.9640625 14.60269531 -1.428125 15.39289062 -1.90625 16.20703125 C-2.2671875 16.79871094 -2.628125 17.39039062 -3 18 C-4.32 18 -5.64 18 -7 18 C-7 17.34 -7 16.68 -7 16 C-5.68 16 -4.36 16 -3 16 C-3.33 14.68 -3.66 13.36 -4 12 C-4.66 12 -5.32 12 -6 12 C-6 11.34 -6 10.68 -6 10 C-5.34 10 -4.68 10 -4 10 C-3.79503906 9.36191406 -3.59007812 8.72382813 -3.37890625 8.06640625 C-3.10949219 7.24011719 -2.84007812 6.41382813 -2.5625 5.5625 C-2.16224609 4.32693359 -2.16224609 4.32693359 -1.75390625 3.06640625 C-1 1 -1 1 0 0 Z " fill="#86A8C3" transform="translate(24,9)"/>
<path d="M0 0 C2.83974964 1.49086856 3.94785602 2.51864084 5.5 5.3125 C6.1875 8.5625 6.1875 8.5625 6.5 11.3125 C5.18 11.3125 3.86 11.3125 2.5 11.3125 C2.5 9.9925 2.5 8.6725 2.5 7.3125 C1.18 6.6525 -0.14 5.9925 -1.5 5.3125 C-1.5 4.6525 -1.5 3.9925 -1.5 3.3125 C-3.15 3.3125 -4.8 3.3125 -6.5 3.3125 C-6.17 2.3225 -5.84 1.3325 -5.5 0.3125 C-2.5 -0.6875 -2.5 -0.6875 0 0 Z " fill="#A2BCD0" transform="translate(79.5,6.6875)"/>
<path d="M0 0 C0.33 1.65 0.66 3.3 1 5 C-0.11375 5.0825 -1.2275 5.165 -2.375 5.25 C-6.05753944 5.57873787 -6.05753944 5.57873787 -7.4375 8.0625 C-7.7159375 9.0215625 -7.7159375 9.0215625 -8 10 C-8 9.34 -8 8.68 -8 8 C-8.99 8 -9.98 8 -11 8 C-11 9.65 -11 11.3 -11 13 C-11.33 13 -11.66 13 -12 13 C-12.34751969 10.08083462 -12.53280018 7.86804524 -10.95703125 5.30078125 C-7.34573421 0.9269816 -5.54591423 -0.14594511 0 0 Z " fill="#89AAC4" transform="translate(77,6)"/>
<path d="M0 0 C3.3 0 6.6 0 10 0 C10 5.28 10 10.56 10 16 C9.34 16.33 8.68 16.66 8 17 C6.55792059 14.11584117 6.90605113 11.58278472 6.9375 8.375 C6.94652344 7.18648437 6.95554687 5.99796875 6.96484375 4.7734375 C6.97644531 3.85820312 6.98804688 2.94296875 7 2 C4.69 2 2.38 2 0 2 C0 1.34 0 0.68 0 0 Z " fill="#85A8C3" transform="translate(54,6)"/>
<path d="M0 0 C0.99 0 1.98 0 3 0 C3.5878125 1.4540625 3.5878125 1.4540625 4.1875 2.9375 C5.67594887 6.22176391 5.67594887 6.22176391 8.6875 6.875 C9.8321875 6.936875 9.8321875 6.936875 11 7 C9.375 8.5625 9.375 8.5625 7 10 C3.875 9.9375 3.875 9.9375 1 9 C-0.4375 7.25 -0.4375 7.25 -1 5 C-0.625 2.25 -0.625 2.25 0 0 Z " fill="#A3BCD1" transform="translate(66,14)"/>
<path d="M0 0 C0.33 1.32 0.66 2.64 1 4 C4.63 4 8.26 4 12 4 C11.67 5.32 11.34 6.64 11 8 C7.7 7.67 4.4 7.34 1 7 C0.67 4.69 0.34 2.38 0 0 Z " fill="#81A4C1" transform="translate(97,18)"/>
<path d="M0 0 C2.31 0 4.62 0 7 0 C6.67 4.62 6.34 9.24 6 14 C5.67 14 5.34 14 5 14 C4.67 10.7 4.34 7.4 4 4 C2.35 4 0.7 4 -1 4 C-0.67 2.68 -0.34 1.36 0 0 Z " fill="#B4C9D9" transform="translate(55,7)"/>
<path d="M0 0 C2.3125 -0.25 2.3125 -0.25 5 0 C6.8125 2 6.8125 2 8 4 C7.34 5.32 6.68 6.64 6 8 C1.125 3.375 1.125 3.375 0 0 Z " fill="#82A5C1" transform="translate(31,6)"/>
<path d="M0 0 C0.33 1.32 0.66 2.64 1 4 C-3.62 4 -8.24 4 -13 4 C-12.67 3.01 -12.34 2.02 -12 1 C-8.37 1.33 -4.74 1.66 -1 2 C-0.67 1.34 -0.34 0.68 0 0 Z " fill="#95B3CB" transform="translate(109,23)"/>
<path d="M0 0 C1.85776765 3.13498292 2.20140476 5.37471432 2 9 C1.01 9.33 0.02 9.66 -1 10 C-2.25 3.375 -2.25 3.375 0 0 Z " fill="#90AFC8" transform="translate(24,9)"/>
<path d="M0 0 C0.99 0 1.98 0 3 0 C4.35384615 6.4 4.35384615 6.4 2.5625 9.4375 C2.046875 9.953125 1.53125 10.46875 1 11 C0.34 10.67 -0.32 10.34 -1 10 C-0.34 9.01 0.32 8.02 1 7 C0.68269476 3.36060068 0.68269476 3.36060068 0 0 Z " fill="#799FBD" transform="translate(81,14)"/>
<path d="M0 0 C0.66 0.33 1.32 0.66 2 1 C2 1.66 2 2.32 2 3 C3.32 3.33 4.64 3.66 6 4 C3.1875 5.125 3.1875 5.125 0 6 C-0.99 5.34 -1.98 4.68 -3 4 C-2.67 3.01 -2.34 2.02 -2 1 C-1.34 0.67 -0.68 0.34 0 0 Z " fill="#A0BACF" transform="translate(52,20)"/>
<path d="M0 0 C3 0 3 0 4.6875 1.375 C6 3 6 3 6 5 C4.68 5.33 3.36 5.66 2 6 C0 3 0 3 0 0 Z " fill="#9AB7CD" transform="translate(36,12)"/>
<path d="M0 0 C0.66 0.33 1.32 0.66 2 1 C1.67 4.63 1.34 8.26 1 12 C0.34 12 -0.32 12 -1 12 C-0.67 9.03 -0.34 6.06 0 3 C-0.66 2.67 -1.32 2.34 -2 2 C-1.34 2 -0.68 2 0 2 C0 1.34 0 0.68 0 0 Z " fill="#7FA3BF" transform="translate(42,15)"/>
</svg>
