<svg width="217" height="174" viewBox="0 0 217 174" fill="none" xmlns="http://www.w3.org/2000/svg">
<path d="M216.646 114.188C215.234 147.654 189.373 174 157.983 174H26.4127C7.7919 174 -5.00078 153.95 1.89262 135.493C11.0805 110.277 29.2474 127.562 25.4735 102.57C22.5805 83.3981 21.9499 72.8238 36.1303 64.2539C50.8501 55.3588 68.5365 71.2996 85.5813 65.9246C91.0177 64.0911 118.782 37.4232 127.177 34.8264C180.671 14.2638 221.235 62.9294 216.646 114.188Z" fill="#E3F0FF"/>
<path d="M190.56 0H109.9C105.83 0 102.531 3.29943 102.531 7.36949V157.204C102.531 161.274 105.83 164.574 109.9 164.574H190.56C194.63 164.574 197.929 161.274 197.929 157.204V7.36949C197.929 3.29943 194.63 0 190.56 0Z" fill="#2F3582"/>
<path d="M187.771 4.31232H112.691C109.312 4.31232 106.573 7.05127 106.573 10.4299V154.144C106.573 157.522 109.312 160.261 112.691 160.261H187.771C191.15 160.261 193.889 157.522 193.889 154.144V10.4299C193.889 7.05127 191.15 4.31232 187.771 4.31232Z" fill="#A6CBFF"/>
<path d="M175.829 160.261L193.889 120.591V39.3831L138.858 160.261H175.829Z" fill="#B3D2FF"/>
<path d="M192.232 6.24639C191.661 5.63531 190.97 5.14827 190.202 4.81555C189.435 4.48282 188.607 4.31153 187.771 4.31232H170.006L106.575 143.647V154.143C106.575 155.765 107.218 157.32 108.365 158.468C109.511 159.615 111.066 160.26 112.688 160.261H122.114L192.232 6.24639Z" fill="#B3D2FF"/>
<path d="M106.573 18.6758V99.8836L150.083 4.31232H113.113L106.573 18.6758Z" fill="#B3D2FF"/>
<path d="M174.064 23.1169H106.575V144.872H174.064C176.094 144.871 178.042 144.064 179.477 142.628C180.913 141.192 181.72 139.245 181.72 137.214V30.7742C181.72 28.7436 180.913 26.7961 179.477 25.3601C178.042 23.9241 176.094 23.1172 174.064 23.1169Z" fill="#94C0FF"/>
<path d="M145.866 144.871H174.065C176.096 144.871 178.043 144.064 179.479 142.628C180.915 141.192 181.722 139.245 181.722 137.214V66.1101L145.866 144.871Z" fill="#A6CBFF"/>
<path d="M129.122 144.872L181.622 29.551C181.332 27.7557 180.411 26.1224 179.026 24.9436C177.642 23.7647 175.882 23.1172 174.064 23.1169H161.445L106.575 143.647V144.872H129.122Z" fill="#A6CBFF"/>
<path d="M187.771 160.503H112.689C111.003 160.501 109.387 159.83 108.195 158.638C107.003 157.446 106.332 155.83 106.33 154.144V10.4294C106.332 8.74364 107.003 7.12744 108.195 5.93542C109.387 4.7434 111.003 4.07291 112.689 4.07104H187.771C189.457 4.07291 191.073 4.7434 192.265 5.93542C193.457 7.12744 194.128 8.74364 194.13 10.4294V154.144C194.128 155.83 193.457 157.446 192.265 158.638C191.073 159.83 189.457 160.501 187.771 160.503ZM112.689 4.55362C111.131 4.55533 109.637 5.17494 108.536 6.27649C107.434 7.37805 106.815 8.87158 106.813 10.4294V154.144C106.815 155.702 107.434 157.195 108.536 158.297C109.637 159.398 111.131 160.018 112.689 160.02H187.771C189.329 160.018 190.823 159.398 191.924 158.297C193.026 157.195 193.645 155.702 193.647 154.144V10.4294C193.645 8.87158 193.026 7.37805 191.924 6.27649C190.823 5.17494 189.329 4.55533 187.771 4.55362H112.689Z" fill="white"/>
<path d="M129.545 2.82349H170.916V3.60848C170.916 4.60539 170.52 5.56147 169.815 6.2664C169.11 6.97132 168.154 7.36734 167.157 7.36734H133.304C132.307 7.36734 131.351 6.97132 130.646 6.2664C129.941 5.56147 129.545 4.60539 129.545 3.60848V2.82349Z" fill="#2F3582"/>
<path d="M167.158 7.60861H133.304C132.373 7.6082 131.471 7.28333 130.754 6.68991C130.037 6.09648 129.548 5.27161 129.374 4.3572C129.362 4.29428 129.375 4.22921 129.411 4.1763C129.447 4.12339 129.503 4.08698 129.566 4.07507C129.629 4.06316 129.694 4.07673 129.747 4.1128C129.8 4.14887 129.836 4.20448 129.848 4.26739C130.001 5.07159 130.43 5.7971 131.061 6.31884C131.692 6.84059 132.485 7.12586 133.304 7.12549H167.158C167.978 7.12596 168.773 6.83961 169.404 6.31599C170.036 5.79237 170.464 5.06445 170.616 4.2582C170.627 4.19528 170.664 4.13961 170.716 4.10344C170.769 4.06728 170.834 4.05357 170.897 4.06533C170.96 4.0771 171.016 4.11337 171.052 4.16618C171.088 4.21899 171.102 4.284 171.09 4.34692C170.918 5.26391 170.431 6.09187 169.712 6.68751C168.994 7.28314 168.091 7.60898 167.158 7.60861Z" fill="white"/>
<path d="M177.729 18.5638H31.4041C27.1754 18.5638 23.7473 21.9919 23.7473 26.2206V132.661C23.7473 136.89 27.1754 140.318 31.4041 140.318H177.729C181.957 140.318 185.385 136.89 185.385 132.661V26.2206C185.385 21.9919 181.957 18.5638 177.729 18.5638Z" fill="white"/>
<path d="M66.9158 97.5584C65.6109 100.967 59.9331 129.134 57.7031 140.318H166.861C164.446 131.337 158.994 111.506 155.812 103.246C151.635 92.4049 138.217 88.4945 131.375 87.9054C124.532 87.3162 120.564 85.0159 120.564 85.0159L120.742 81.9187C124.791 78.7836 124.668 73.1215 124.668 73.1215C127.616 71.8772 130.25 65.568 130.427 63.3467C130.605 61.1254 128.882 58.5112 128.882 58.5112C131.513 49.3213 126.487 39.7981 125.109 38.5538C123.73 37.3095 121.09 36.8626 121.09 36.8626C121.09 36.8626 118.757 31.9887 110.631 31.4862C102.505 30.9836 95.6521 34.3881 91.9002 37.409C88.1484 40.43 89.3575 46.8765 89.3575 46.8765C88.9296 48.711 89.1633 59.3682 89.1633 59.3682C88.1863 60.0985 88.5412 64.1468 89.2526 67.2635C89.964 70.3802 93.0396 73.8226 93.0396 73.8226C93.6347 77.4376 97.0159 81.9192 97.0159 81.9192L97.413 85.0164L94.3834 85.5217C83.6121 87.7019 68.5491 93.2932 66.9158 97.5584Z" fill="#EDEDED"/>
<path d="M54.0487 48.9973H34.7242C33.2043 48.9973 31.9722 50.2294 31.9722 51.7493V67.5584C31.9722 69.0783 33.2043 70.3105 34.7242 70.3105H54.0487C55.5686 70.3105 56.8008 69.0783 56.8008 67.5584V51.7493C56.8008 50.2294 55.5686 48.9973 54.0487 48.9973Z" fill="#C0DDFF"/>
<path d="M84.3148 48.9973H64.9903C63.4704 48.9973 62.2383 50.2294 62.2383 51.7493V67.5584C62.2383 69.0783 63.4704 70.3105 64.9903 70.3105H84.3148C85.8348 70.3105 87.0669 69.0783 87.0669 67.5584V51.7493C87.0669 50.2294 85.8348 48.9973 84.3148 48.9973Z" fill="#C0DDFF"/>
<path d="M114.583 48.9973H95.2584C93.7385 48.9973 92.5063 50.2294 92.5063 51.7493V67.5584C92.5063 69.0783 93.7385 70.3105 95.2584 70.3105H114.583C116.103 70.3105 117.335 69.0783 117.335 67.5584V51.7493C117.335 50.2294 116.103 48.9973 114.583 48.9973Z" fill="#A6CFFF"/>
<path d="M54.0487 80.0582H34.7242C33.2043 80.0582 31.9722 81.2903 31.9722 82.8102V98.6193C31.9722 100.139 33.2043 101.371 34.7242 101.371H54.0487C55.5686 101.371 56.8008 100.139 56.8008 98.6193V82.8102C56.8008 81.2903 55.5686 80.0582 54.0487 80.0582Z" fill="#C0DDFF"/>
<path d="M54.0487 111.119H34.7242C33.2043 111.119 31.9722 112.351 31.9722 113.871V129.68C31.9722 131.2 33.2043 132.432 34.7242 132.432H54.0487C55.5686 132.432 56.8008 131.2 56.8008 129.68V113.871C56.8008 112.351 55.5686 111.119 54.0487 111.119Z" fill="#C0DDFF"/>
<path d="M114.583 111.119H95.2584C93.7385 111.119 92.5063 112.351 92.5063 113.871V129.68C92.5063 131.2 93.7385 132.432 95.2584 132.432H114.583C116.103 132.432 117.335 131.2 117.335 129.68V113.871C117.335 112.351 116.103 111.119 114.583 111.119Z" fill="#A6CFFF"/>
<path d="M144.851 111.119H125.526C124.007 111.119 122.774 112.351 122.774 113.871V129.68C122.774 131.2 124.007 132.432 125.526 132.432H144.851C146.371 132.432 147.603 131.2 147.603 129.68V113.871C147.603 112.351 146.371 111.119 144.851 111.119Z" fill="#A6CFFF"/>
<path d="M175.119 48.9973H155.795C154.275 48.9973 153.042 50.2294 153.042 51.7493V67.5584C153.042 69.0783 154.275 70.3105 155.795 70.3105H175.119C176.639 70.3105 177.871 69.0783 177.871 67.5584V51.7493C177.871 50.2294 176.639 48.9973 175.119 48.9973Z" fill="#C0DDFF"/>
<path d="M118.873 31.4364H34.1897C32.965 31.4364 31.9722 32.4292 31.9722 33.654V40.8644C31.9722 42.0891 32.965 43.082 34.1897 43.082H118.873C120.098 43.082 121.091 42.0891 121.091 40.8644V33.654C121.091 32.4292 120.098 31.4364 118.873 31.4364Z" fill="#C0DDFF"/>
<path d="M118.873 43.0825C119.461 43.0825 120.026 42.8488 120.442 42.4328C120.858 42.0168 121.091 41.4527 121.091 40.8644V36.861C121.091 36.861 118.755 31.9871 110.632 31.4851C102.509 30.983 95.653 34.387 91.9011 37.4079C90.0855 38.8686 89.4331 41.1338 89.2427 43.0814L118.873 43.0825Z" fill="#A6CFFF"/>
<path d="M84.3148 80.0582H64.9903C63.4704 80.0582 62.2383 81.2903 62.2383 82.8102V98.6193C62.2383 100.139 63.4704 101.371 64.9903 101.371H84.3148C85.8348 101.371 87.0669 100.139 87.0669 98.6193V82.8102C87.0669 81.2903 85.8348 80.0582 84.3148 80.0582Z" fill="#C0DDFF"/>
<path d="M84.3152 101.371C84.6766 101.371 85.0346 101.3 85.3685 101.162C85.7025 101.024 86.0059 100.821 86.2615 100.566C86.5172 100.31 86.7199 100.007 86.8583 99.6726C86.9966 99.3387 87.0678 98.9808 87.0678 98.6193V87.34C77.7896 90.031 68.2004 94.2042 66.9161 97.5584C66.6889 98.1535 66.3286 99.4974 65.8779 101.371H84.3152Z" fill="#A6CFFF"/>
<path d="M114.583 80.0582H95.2584C93.7385 80.0582 92.5063 81.2903 92.5063 82.8102V98.6193C92.5063 100.139 93.7385 101.371 95.2584 101.371H114.583C116.103 101.371 117.335 100.139 117.335 98.6193V82.8102C117.335 81.2903 116.103 80.0582 114.583 80.0582Z" fill="#C0DDFF"/>
<path d="M95.2597 101.371H114.582C115.312 101.371 116.012 101.081 116.528 100.565C117.044 100.049 117.334 99.3492 117.334 98.6193V82.8108C117.334 82.0808 117.044 81.3808 116.528 80.8646C116.012 80.3484 115.312 80.0583 114.582 80.0582H95.7553C96.4586 81.1791 97.0163 81.9187 97.0163 81.9187L97.4134 85.0159L94.3838 85.5212C93.7709 85.6456 93.1422 85.7819 92.5044 85.9269V98.6193C92.5045 98.981 92.5758 99.3391 92.7143 99.6731C92.8529 100.007 93.0559 100.311 93.3118 100.566C93.5676 100.822 93.8714 101.025 94.2056 101.163C94.5399 101.301 94.8981 101.372 95.2597 101.371Z" fill="#A6CFFF"/>
<path d="M144.851 80.0582H125.526C124.007 80.0582 122.774 81.2903 122.774 82.8102V98.6193C122.774 100.139 124.007 101.371 125.526 101.371H144.851C146.371 101.371 147.603 100.139 147.603 98.6193V82.8102C147.603 81.2903 146.371 80.0582 144.851 80.0582Z" fill="#C0DDFF"/>
<path d="M125.528 101.371H144.852C145.213 101.371 145.571 101.3 145.905 101.162C146.239 101.024 146.542 100.821 146.798 100.565C147.054 100.31 147.256 100.007 147.395 99.6726C147.533 99.3387 147.604 98.9807 147.604 98.6193V93.4868C142.135 89.8562 135.54 88.264 131.374 87.9053C127.541 87.5753 124.612 86.7086 122.772 86.0118V98.6193C122.773 98.981 122.844 99.339 122.982 99.6731C123.121 100.007 123.324 100.311 123.58 100.566C123.836 100.822 124.139 101.025 124.474 101.163C124.808 101.301 125.166 101.372 125.528 101.371Z" fill="#A6CFFF"/>
<path d="M144.851 48.9973H125.526C124.007 48.9973 122.774 50.2294 122.774 51.7493V67.5584C122.774 69.0783 124.007 70.3105 125.526 70.3105H144.851C146.371 70.3105 147.603 69.0783 147.603 67.5584V51.7493C147.603 50.2294 146.371 48.9973 144.851 48.9973Z" fill="#C0DDFF"/>
<path d="M122.774 51.7499V67.5584C122.774 68.2883 123.064 68.9884 123.58 69.5046C124.097 70.0208 124.797 70.3109 125.526 70.311H127.578C129.169 67.9306 130.312 64.7836 130.427 63.3467C130.605 61.1248 128.882 58.5113 128.882 58.5113C129.814 55.2534 129.783 51.9554 129.295 48.9973H125.526C124.797 48.9974 124.097 49.2875 123.58 49.8037C123.064 50.3199 122.774 51.0199 122.774 51.7499Z" fill="#A6CFFF"/>
<path d="M175.119 111.119H155.795C154.275 111.119 153.042 112.351 153.042 113.871V129.68C153.042 131.2 154.275 132.432 155.795 132.432H175.119C176.639 132.432 177.871 131.2 177.871 129.68V113.871C177.871 112.351 176.639 111.119 175.119 111.119Z" fill="#C0DDFF"/>
<path d="M158.496 111.119H155.795C155.065 111.119 154.365 111.409 153.849 111.925C153.333 112.441 153.043 113.141 153.042 113.871V129.68C153.042 130.41 153.332 131.11 153.849 131.626C154.365 132.142 155.065 132.432 155.795 132.432H164.71C162.871 125.779 160.555 117.641 158.496 111.119Z" fill="#A6CFFF"/>
<path d="M84.3148 111.119H64.9903C63.4704 111.119 62.2383 112.351 62.2383 113.871V129.68C62.2383 131.2 63.4704 132.432 64.9903 132.432H84.3148C85.8348 132.432 87.0669 131.2 87.0669 129.68V113.871C87.0669 112.351 85.8348 111.119 84.3148 111.119Z" fill="#C0DDFF"/>
<path d="M64.9903 132.432H84.3143C84.6758 132.432 85.0338 132.361 85.3678 132.223C85.7018 132.085 86.0052 131.882 86.2608 131.626C86.5165 131.371 86.7192 131.067 86.8575 130.733C86.9958 130.399 87.067 130.041 87.0669 129.68V113.871C87.0669 113.51 86.9957 113.152 86.8574 112.818C86.719 112.484 86.5163 112.181 86.2607 111.925C86.0051 111.669 85.7016 111.467 85.3676 111.328C85.0337 111.19 84.6758 111.119 84.3143 111.119H64.9903C64.5077 111.119 64.0335 111.247 63.6162 111.489C63.1699 113.575 62.7057 115.778 62.2383 118.017V129.68C62.2383 130.41 62.5282 131.11 63.0443 131.626C63.5604 132.142 64.2604 132.432 64.9903 132.432Z" fill="#A6CFFF"/>
<path d="M175.119 80.0582H155.795C154.275 80.0582 153.042 81.2903 153.042 82.8102V98.6193C153.042 100.139 154.275 101.371 155.795 101.371H175.119C176.639 101.371 177.871 100.139 177.871 98.6193V82.8102C177.871 81.2903 176.639 80.0582 175.119 80.0582Z" fill="#C0DDFF"/>
<path d="M154.878 101.212C154.35 100.227 153.736 99.2912 153.042 98.4148V98.6193C153.043 99.1882 153.219 99.743 153.548 100.207C153.877 100.672 154.342 101.023 154.878 101.212Z" fill="#A6CFFF"/>
<path d="M97.6796 19.2877H91.1513C90.9594 19.2877 90.7753 19.2115 90.6395 19.0757C90.5038 18.94 90.4275 18.7559 90.4275 18.5639C90.4275 18.3719 90.5038 18.1878 90.6395 18.052C90.7753 17.9163 90.9594 17.84 91.1513 17.84H97.6796C97.8716 17.84 98.0557 17.9163 98.1914 18.052C98.3272 18.1878 98.4034 18.3719 98.4034 18.5639C98.4034 18.7559 98.3272 18.94 98.1914 19.0757C98.0557 19.2115 97.8716 19.2877 97.6796 19.2877Z" fill="#E3F0FF"/>
<path d="M76.41 19.2877H70.6863C70.4943 19.2877 70.3102 19.2115 70.1744 19.0757C70.0387 18.94 69.9624 18.7559 69.9624 18.5639C69.9624 18.3719 70.0387 18.1878 70.1744 18.052C70.3102 17.9163 70.4943 17.84 70.6863 17.84H76.41C76.602 17.84 76.7861 17.9163 76.9219 18.052C77.0576 18.1878 77.1339 18.3719 77.1339 18.5639C77.1339 18.7559 77.0576 18.94 76.9219 19.0757C76.7861 19.2115 76.602 19.2877 76.41 19.2877Z" fill="#E3F0FF"/>
<path d="M56.2239 19.2877H49.0054C48.8134 19.2877 48.6293 19.2115 48.4935 19.0757C48.3578 18.94 48.2815 18.7559 48.2815 18.5639C48.2815 18.3719 48.3578 18.1878 48.4935 18.052C48.6293 17.9163 48.8134 17.84 49.0054 17.84H56.2239C56.4159 17.84 56.6 17.9163 56.7358 18.052C56.8715 18.1878 56.9478 18.3719 56.9478 18.5639C56.9478 18.7559 56.8715 18.94 56.7358 19.0757C56.6 19.2115 56.4159 19.2877 56.2239 19.2877Z" fill="#E3F0FF"/>
<path d="M23.7488 47.5999C23.5568 47.5999 23.3727 47.5236 23.2369 47.3878C23.1012 47.2521 23.0249 47.068 23.0249 46.876V26.2206C23.0249 21.5994 26.7849 17.84 31.4061 17.84H35.3927C35.5847 17.84 35.7688 17.9163 35.9045 18.052C36.0403 18.1878 36.1165 18.3719 36.1165 18.5639C36.1165 18.7559 36.0403 18.94 35.9045 19.0757C35.7688 19.2115 35.5847 19.2877 35.3927 19.2877H31.4061C29.568 19.2899 27.8058 20.021 26.5061 21.3207C25.2064 22.6204 24.4753 24.3826 24.4732 26.2206V46.876C24.4732 46.9711 24.4544 47.0653 24.418 47.1531C24.3816 47.241 24.3282 47.3208 24.261 47.388C24.1937 47.4553 24.1138 47.5086 24.0259 47.5449C23.9381 47.5813 23.8439 47.5999 23.7488 47.5999Z" fill="#E3F0FF"/>
<path d="M42.1291 24.8032C41.6113 24.8032 41.0985 24.7012 40.6201 24.503C40.1417 24.3049 39.7069 24.0144 39.3408 23.6482C38.9746 23.2821 38.6841 22.8474 38.486 22.3689C38.2878 21.8905 38.1858 21.3777 38.1858 20.8599V16.2679C38.1858 15.222 38.6012 14.219 39.3408 13.4795C40.0803 12.74 41.0833 12.3245 42.1291 12.3245C43.175 12.3245 44.178 12.74 44.9175 13.4795C45.657 14.219 46.0725 15.222 46.0725 16.2679V20.8599C46.0725 21.9057 45.657 22.9087 44.9175 23.6482C44.178 24.3878 43.175 24.8032 42.1291 24.8032Z" fill="#C0DDFF"/>
<path d="M62.9705 24.8032C61.9246 24.8032 60.9215 24.3878 60.1819 23.6483C59.4423 22.9088 59.0268 21.9058 59.0266 20.8599V16.2679C59.0388 15.23 59.4596 14.2387 60.1979 13.509C60.9361 12.7794 61.9322 12.3702 62.9702 12.3702C64.0082 12.3702 65.0043 12.7794 65.7426 13.509C66.4808 14.2387 66.9017 15.23 66.9138 16.2679V20.8599C66.9137 21.9057 66.4982 22.9086 65.7587 23.6481C65.0192 24.3876 64.0163 24.8031 62.9705 24.8032Z" fill="#C0DDFF"/>
<path d="M83.8166 24.8032C82.7708 24.8032 81.7678 24.3878 81.0283 23.6482C80.2888 22.9087 79.8733 21.9057 79.8733 20.8599V16.2679C79.8733 15.222 80.2888 14.219 81.0283 13.4795C81.7678 12.74 82.7708 12.3245 83.8166 12.3245C84.8625 12.3245 85.8655 12.74 86.605 13.4795C87.3445 14.219 87.76 15.222 87.76 16.2679V20.8599C87.76 21.3777 87.658 21.8905 87.4598 22.3689C87.2616 22.8474 86.9712 23.2821 86.605 23.6482C86.2388 24.0144 85.8041 24.3049 85.3257 24.503C84.8473 24.7012 84.3345 24.8032 83.8166 24.8032Z" fill="#C0DDFF"/>
<path d="M104.659 24.8032C103.614 24.8031 102.611 24.3876 101.871 23.6481C101.132 22.9086 100.716 21.9057 100.716 20.8599V16.2679C100.728 15.23 101.149 14.2387 101.887 13.509C102.626 12.7794 103.622 12.3702 104.66 12.3702C105.698 12.3702 106.694 12.7794 107.432 13.509C108.17 14.2387 108.591 15.23 108.603 16.2679V20.8599C108.603 21.9058 108.188 22.9088 107.448 23.6483C106.708 24.3878 105.705 24.8032 104.659 24.8032Z" fill="#C0DDFF"/>
<path d="M125.502 24.8032C124.457 24.8028 123.454 24.3871 122.715 23.6477C121.976 22.9082 121.561 21.9054 121.561 20.8599V16.2679C121.561 15.222 121.976 14.219 122.716 13.4795C123.455 12.74 124.458 12.3245 125.504 12.3245C126.55 12.3245 127.553 12.74 128.292 13.4795C129.032 14.219 129.447 15.222 129.447 16.2679V20.8599C129.447 21.3779 129.345 21.8908 129.147 22.3693C128.949 22.8478 128.658 23.2826 128.292 23.6488C127.925 24.015 127.49 24.3054 127.012 24.5035C126.533 24.7016 126.02 24.8034 125.502 24.8032Z" fill="#C0DDFF"/>
<path d="M146.347 24.8032C145.301 24.8031 144.298 24.3876 143.558 23.6481C142.819 22.9086 142.403 21.9057 142.403 20.8599V16.2679C142.415 15.23 142.836 14.2387 143.575 13.509C144.313 12.7794 145.309 12.3702 146.347 12.3702C147.385 12.3702 148.381 12.7794 149.119 13.509C149.858 14.2387 150.278 15.23 150.291 16.2679V20.8599C150.29 21.9058 149.875 22.9088 149.135 23.6483C148.396 24.3878 147.393 24.8032 146.347 24.8032Z" fill="#C0DDFF"/>
<path d="M167.19 24.8032C166.144 24.8032 165.141 24.3878 164.401 23.6483C163.662 22.9088 163.246 21.9058 163.246 20.8599V16.2679C163.258 15.23 163.679 14.2387 164.417 13.509C165.156 12.7794 166.152 12.3702 167.19 12.3702C168.228 12.3702 169.224 12.7794 169.962 13.509C170.7 14.2387 171.121 15.23 171.133 16.2679V20.8599C171.133 21.9057 170.718 22.9087 169.978 23.6482C169.239 24.3878 168.236 24.8032 167.19 24.8032Z" fill="#C0DDFF"/>
<path d="M128.674 107.311C127.465 101.232 131.413 95.3251 137.492 94.1165C143.572 92.908 149.478 96.8551 150.687 102.935C150.735 103.177 150.774 103.422 150.806 103.662L162.829 150.441C163.016 151.374 163.016 152.334 162.831 153.268C162.647 154.201 162.279 155.089 161.751 155.88C161.223 156.671 160.544 157.351 159.753 157.879C158.962 158.408 158.075 158.776 157.142 158.961C156.209 159.147 155.248 159.147 154.315 158.961C153.382 158.775 152.495 158.407 151.704 157.878C150.914 157.349 150.235 156.669 149.707 155.878C149.179 155.086 148.812 154.198 148.628 153.265L129.568 109.997C129.158 109.143 128.858 108.24 128.674 107.311Z" fill="#F6AF9A"/>
<path d="M148.153 96.1794C148.153 96.1794 150.902 98.4175 153.837 110.378C156.773 122.339 163.642 142.255 164.241 148.388C164.841 154.521 161.994 160.703 156.704 160.974C151.413 161.244 145.523 154.482 140.391 143.085C135.259 131.688 126.261 109.883 126.491 103.78C126.721 97.6769 135.14 86.7936 148.153 96.1794Z" fill="white"/>
<path d="M151.952 144.319C147.419 144.083 150.151 138.639 149.598 129.161C149.117 120.905 146.13 107.096 146.13 107.096L131.871 121.677C131.813 121.846 131.759 122.015 131.708 122.185C134.518 129.617 137.908 137.571 140.392 143.088C142.791 148.417 145.356 152.732 147.948 155.789C148.054 155.795 148.16 155.8 148.266 155.802C151.695 150.807 154.764 144.466 151.952 144.319Z" fill="#D4E8FC"/>
<path d="M91.822 106.304C92.5507 100.149 88.1524 94.5694 81.998 93.8406C75.8436 93.1119 70.2637 97.5108 69.535 103.665C69.5058 103.911 69.4858 104.156 69.4728 104.399L65.3314 153.385C65.2145 154.332 65.2858 155.292 65.5412 156.211C65.7966 157.13 66.2311 157.989 66.8197 158.74C67.4082 159.491 68.1393 160.117 68.9708 160.584C69.8024 161.052 70.7181 161.35 71.6652 161.462C72.6124 161.574 73.5724 161.498 74.49 161.238C75.4077 160.978 76.2649 160.539 77.0125 159.947C77.7601 159.355 78.3832 158.62 78.8462 157.786C79.3091 156.953 79.6027 156.035 79.7101 155.088L91.1404 109.051C91.4824 108.168 91.7114 107.245 91.822 106.304Z" fill="#F6AF9A"/>
<path d="M85.7006 142.187C83.1396 151.991 79.5798 158.872 75.5223 161.455C74.5739 162.06 73.5974 162.429 72.6009 162.545C71.1899 162.714 69.7624 162.419 68.5337 161.705C65.4456 159.948 63.3801 155.805 63.0696 151.392C62.6368 145.245 66.0916 124.463 66.9913 112.181C67.891 99.8982 70.9865 98.4814 70.9865 98.4814C82.2518 87.0571 91.61 95.1336 92.8543 101.115C94.0986 107.096 88.8606 130.092 85.7006 142.187Z" fill="white"/>
<path d="M79.9486 140.109C79.9233 140.996 79.7665 141.874 79.4833 142.714C79.1633 143.662 78.6901 144.552 78.0827 145.348C77.7817 145.743 77.4505 146.115 77.0921 146.46C77.091 146.461 77.0897 146.463 77.0883 146.464C76.609 146.922 76.0849 147.331 75.5238 147.685V161.455C74.5754 162.06 73.5989 162.429 72.6024 162.545C71.1914 162.714 69.7638 162.419 68.5351 161.705C68.5308 161.229 68.5272 160.751 68.5243 160.272C68.4859 154.212 68.5535 148.083 68.6942 142.524C68.7097 141.908 68.7263 141.299 68.744 140.697C68.744 140.654 68.744 140.612 68.7477 140.569C68.9869 134.764 70.1089 126.525 71.4376 118.338C71.9521 115.167 72.4974 112.004 73.0346 108.994C73.0346 108.989 73.0346 108.986 73.0346 108.982C73.0855 108.697 73.1362 108.414 73.1866 108.133C74.0214 103.481 74.827 99.2377 75.454 95.943C75.4542 95.9396 75.4542 95.9361 75.454 95.9327C75.4637 95.884 75.4729 95.8359 75.4821 95.7877C75.4994 95.7001 75.5156 95.613 75.5319 95.5264L75.5411 95.719C75.5411 95.7223 75.5411 95.7612 75.5465 95.8337V95.8391C75.626 97.5417 76.5203 116.756 76.5252 116.849C76.2482 118.327 76.2184 119.844 76.3493 121.379C76.6463 124.849 77.7613 128.412 78.6756 131.828C79.4557 134.74 80.0893 137.547 79.9486 140.109Z" fill="#D4E8FC"/>
<path d="M79.0864 149.182C79.0734 152.174 78.843 155.269 78.4589 158.379C78.4416 158.52 78.4243 158.662 78.4048 158.803C77.8513 163.131 77.0063 167.478 76.0417 171.61C76.0417 171.614 76.0417 171.616 76.0417 171.619C75.8711 172.348 75.6974 173.069 75.5207 173.783C75.5034 173.855 75.4855 173.926 75.4666 173.999H64.4221C64.1976 168.495 64.23 161.851 64.3577 156.712C64.7591 150.35 63.9195 147.27 66.0684 144.67C66.67 143.942 67.5063 143.251 68.6706 142.536L68.6895 142.526C70.1118 141.812 71.7367 141.61 73.2907 141.953C74.7329 142.27 76.0508 143.002 77.081 144.059L77.0842 144.063C77.4636 144.453 77.798 144.885 78.0813 145.35C78.7834 146.501 79.1329 147.834 79.0864 149.182Z" fill="#F6AF9A"/>
<path d="M81.6891 152.398C81.5539 153.033 81.4111 153.689 81.2617 154.362C79.8719 160.637 77.9465 168.374 76.6551 174H62.785C62.8775 167.815 61.9362 158.857 63.0798 151.56C63.5976 148.26 64.5405 145.297 66.2019 143.086C66.8981 142.145 67.7575 141.337 68.7392 140.699C69.9998 139.888 71.5075 139.347 73.3091 139.147C74.6317 139.246 75.9084 139.675 77.0219 140.395H77.0246C77.9752 141.016 78.8074 141.802 79.4818 142.715C80.5097 144.084 81.2331 145.726 81.6129 147.425C81.9867 149.096 82.0251 150.823 81.6891 152.398Z" fill="white"/>
<path d="M79.4827 142.714C79.1626 143.662 78.6895 144.552 78.082 145.348C77.781 145.743 77.4498 146.115 77.0915 146.46C77.0903 146.461 77.0891 146.463 77.0877 146.464C76.6084 146.922 76.0842 147.331 75.5231 147.685V173.997H68.8185C68.6616 170.102 68.5696 165.936 68.5312 161.705C68.5269 161.229 68.5233 160.751 68.5204 160.272C68.482 154.212 68.5496 148.083 68.6903 142.524C68.7058 141.908 68.7224 141.299 68.7401 140.697C70.0006 139.885 71.5084 139.344 73.3099 139.144C74.6325 139.243 75.9092 139.672 77.0228 140.393H77.0255C77.9762 141.014 78.8083 141.8 79.4827 142.714Z" fill="#D4E8FC"/>
<path d="M135.663 146.81C137.788 140.25 139.213 125.795 139.213 125.795C139.213 125.795 133.211 122.504 108.634 122.504C84.2304 122.469 77.8514 125.813 77.9694 125.795C77.9694 125.795 79.3938 140.25 81.5189 146.81C83.6439 153.371 80.88 158.182 80.2329 162.617C78.0889 173.746 139.103 173.744 136.949 162.617C136.303 158.182 133.538 153.371 135.663 146.81Z" fill="#F6AF9A"/>
<path d="M94.0324 89.5181C88.3135 92.1268 78.5858 93.9954 76.9222 94.7344C75.2586 95.4734 67.9762 101.713 78.879 128.048C86.8642 144.65 101.734 136.586 112.41 138.094C128.431 140.416 133.47 137.662 138.19 128.048C149.093 101.714 143.087 94.6922 141.424 93.9532C139.761 93.2142 128.662 92.3237 123.037 89.517C112.335 85.0343 104.951 85.6013 94.0324 89.5181Z" fill="#F6AF9A"/>
<path d="M117.558 87.2302C117.637 98.5403 99.9364 98.4289 99.9607 87.2221C100.118 85.9491 100.304 72.4815 101.845 71.7679C104.321 65.7834 113.304 65.7396 115.81 71.7679C117.356 72.6557 117.441 84.5436 117.558 87.2302Z" fill="#F6AF9A"/>
<path d="M117.413 83.7283C111.271 89.1323 106.586 88.6222 100.217 83.4908C100.344 80.1788 100.46 72.9954 101.845 71.7679C104.322 65.7823 113.305 65.7401 115.811 71.7679C117.288 73.3476 117.293 80.004 117.413 83.7283Z" fill="#EA9A88"/>
<path d="M108.752 36.8745C108.752 36.8745 128.235 35.5794 125.536 59.6506C122.838 83.7218 110.425 84.9088 108.752 85.0164C107.078 84.9082 94.6657 83.7213 91.9672 59.6506C89.2687 35.5799 108.752 36.8745 108.752 36.8745Z" fill="#F6AF9A"/>
<path d="M114.08 63.8796C114.872 63.8796 115.514 63.1142 115.514 62.17C115.514 61.2258 114.872 60.4604 114.08 60.4604C113.288 60.4604 112.646 61.2258 112.646 62.17C112.646 63.1142 113.288 63.8796 114.08 63.8796Z" fill="#121D3F"/>
<path d="M102.83 63.8796C103.622 63.8796 104.264 63.1142 104.264 62.17C104.264 61.2258 103.622 60.4604 102.83 60.4604C102.038 60.4604 101.396 61.2258 101.396 62.17C101.396 63.1142 102.038 63.8796 102.83 63.8796Z" fill="#121D3F"/>
<path d="M105.602 57.8155C105.602 57.8155 106.337 57.8344 106.359 58.3625C106.384 58.9484 106.444 59.234 106.094 59.3454C105.744 59.4569 102.401 59.1074 100.58 59.0382C98.7377 58.9678 97.9262 59.0441 97.8212 58.851C97.7163 58.6578 99.336 57.7782 101.2 57.7528C103.368 57.723 103.319 57.7095 105.602 57.8155Z" fill="#8C4949"/>
<path d="M110.863 57.7598C110.863 57.7598 110.128 57.7663 110.098 58.2943C110.064 58.8797 109.999 59.1648 110.348 59.2817C110.696 59.3985 114.043 59.1031 115.866 59.0653C117.709 59.0247 118.519 59.114 118.629 58.9224C118.738 58.7309 117.131 57.8253 115.268 57.7701C113.097 57.703 113.146 57.6906 110.863 57.7598Z" fill="#8C4949"/>
<path d="M98.1021 66.9092C98.1021 66.9092 98.6728 65.4799 101.754 65.5226C104.258 65.5578 106.142 65.9651 106.119 67.7191C106.285 69.994 96.7826 70.4289 98.1021 66.9092Z" fill="#EA9A88"/>
<path d="M110.757 66.9092C110.757 66.9092 111.327 65.4799 114.408 65.5226C116.913 65.5578 118.797 65.9651 118.774 67.7191C118.94 69.994 109.436 70.4289 110.757 66.9092Z" fill="#EA9A88"/>
<path d="M109.554 69.7532C109.543 69.633 109.484 69.5221 109.392 69.4445C109.299 69.367 109.18 69.329 109.06 69.3388C108.456 69.3929 107.325 69.3929 106.856 69.1765L106.829 69.163C106.834 69.051 106.919 68.7843 106.995 68.5511C107.032 68.4364 107.073 68.3109 107.115 68.1724C107.196 67.9073 107.274 67.6487 107.347 67.3988L107.362 67.3495C108.514 63.43 108.734 61.4526 108.744 61.3666C108.756 61.2463 108.721 61.1258 108.645 61.0316C108.569 60.9374 108.459 60.8772 108.339 60.8643C108.218 60.8514 108.098 60.8868 108.004 60.9627C107.909 61.0387 107.849 61.1489 107.836 61.2692C107.836 61.2909 107.592 63.4419 106.326 67.6287L106.317 67.6606C106.293 67.7412 106.268 67.8229 106.243 67.9051C106.202 68.0371 106.163 68.1578 106.127 68.2687C105.91 68.9395 105.686 69.6336 106.469 69.9999C106.959 70.2298 107.716 70.2817 108.304 70.2817C108.728 70.2817 109.061 70.2542 109.14 70.2471C109.2 70.2419 109.258 70.2249 109.311 70.1973C109.364 70.1696 109.411 70.1318 109.449 70.0859C109.488 70.04 109.517 69.987 109.535 69.93C109.553 69.8729 109.559 69.8128 109.554 69.7532Z" fill="#E57E73"/>
<path d="M123.239 62.2063C123.239 62.2063 124.823 59.4612 126.964 60.1472C128.799 60.7358 128.115 67.6606 124.897 70.8347C121.498 74.1856 121.66 66.1594 123.239 62.2063Z" fill="#F6AF9A"/>
<path d="M126.455 62.5947C126.442 62.5534 126.422 62.515 126.395 62.4817C126.367 62.4483 126.334 62.4206 126.296 62.4002C126.258 62.3798 126.217 62.3671 126.174 62.3628C126.131 62.3585 126.088 62.3626 126.046 62.375C124.088 62.9647 123.778 67.6319 123.75 68.1637C123.745 68.2505 123.775 68.3357 123.833 68.4004C123.891 68.4651 123.972 68.5041 124.059 68.5089H124.078C124.161 68.5089 124.242 68.4767 124.303 68.4191C124.364 68.3614 124.4 68.2826 124.405 68.1989C124.429 67.7515 124.483 67.2327 124.567 66.6987C124.852 66.261 125.414 65.5783 125.812 65.4734C125.854 65.4631 125.894 65.4444 125.929 65.4186C125.964 65.3927 125.993 65.3601 126.016 65.3227C126.038 65.2853 126.053 65.2438 126.059 65.2006C126.065 65.1575 126.062 65.1136 126.051 65.0715C126.04 65.0293 126.021 64.9898 125.994 64.9553C125.968 64.9207 125.935 64.8918 125.897 64.8702C125.859 64.8485 125.817 64.8347 125.774 64.8294C125.731 64.8241 125.687 64.8275 125.645 64.8393C125.368 64.9118 125.092 65.1071 124.847 65.3354C125.15 64.1804 125.609 63.1925 126.235 63.0042C126.276 62.9919 126.315 62.9715 126.348 62.9442C126.382 62.9169 126.409 62.8833 126.43 62.8453C126.45 62.8072 126.463 62.7655 126.467 62.7225C126.472 62.6795 126.467 62.636 126.455 62.5947Z" fill="#E57E73"/>
<path d="M94.6745 62.2063C94.6745 62.2063 93.0905 59.4612 90.9503 60.1472C89.1141 60.7358 89.7985 67.6606 93.0174 70.8347C96.4117 74.1856 96.2494 66.1594 94.6745 62.2063Z" fill="#F6AF9A"/>
<path d="M93.9617 68.5976C93.933 68.0675 93.623 63.4003 91.6651 62.8089C91.5818 62.7838 91.492 62.7928 91.4153 62.834C91.3387 62.8751 91.2815 62.945 91.2564 63.0283C91.2313 63.1116 91.2403 63.2015 91.2814 63.2781C91.3226 63.3548 91.3925 63.4119 91.4758 63.437C92.1012 63.6253 92.5578 64.6132 92.8634 65.7682C92.6184 65.5399 92.3425 65.3452 92.0655 65.2721C92.0235 65.2603 91.9797 65.2569 91.9364 65.2622C91.8932 65.2675 91.8515 65.2814 91.8136 65.303C91.7758 65.3246 91.7427 65.3535 91.7162 65.3881C91.6897 65.4227 91.6703 65.4621 91.6592 65.5043C91.6482 65.5464 91.6456 65.5903 91.6517 65.6335C91.6578 65.6766 91.6724 65.7181 91.6947 65.7555C91.717 65.7929 91.7466 65.8255 91.7816 65.8514C91.8167 65.8772 91.8565 65.8959 91.8988 65.9062C92.2975 66.0111 92.8596 66.6939 93.1431 67.1315C93.227 67.6655 93.2805 68.1849 93.3054 68.6317C93.31 68.7155 93.3464 68.7944 93.4073 68.8521C93.4682 68.9098 93.5488 68.9421 93.6327 68.9423H93.6511C93.738 68.9376 93.8194 68.8988 93.8776 68.8342C93.9359 68.7696 93.9661 68.6845 93.9617 68.5976Z" fill="#E57E73"/>
<path d="M94.1094 63.7509C94.1094 63.7509 94.9625 67.5319 95.418 70.6567C95.8736 73.7815 95.391 74.7867 95.8828 76.0559C96.3745 77.3251 99.6157 85.5234 108.596 85.5234C117.577 85.5234 120.903 78.1203 121.616 76.0559C122.061 74.7699 121.65 73.7464 122.103 70.6215C122.557 67.4967 123.131 64.2275 123.131 64.2275L121.833 64.136C121.833 64.136 120.404 69.005 118.309 70.8536C116.214 72.7022 112.207 71.1615 108.078 71.1615C103.949 71.1615 100.474 72.2819 97.9716 70.0367C95.7854 68.1708 95.5776 64.9805 95.3115 64.1068L94.1094 63.7509Z" fill="#8C4949"/>
<path d="M108.242 72.5264C104.95 72.5264 102.281 73.8864 102.281 75.5635C102.281 76.6244 103.348 77.5571 104.966 78.1003C105.195 78.1764 105.442 78.1826 105.675 78.1181C106.822 77.8092 107.215 76.9745 107.349 76.4189C107.388 76.2661 107.477 76.1309 107.602 76.0348C107.727 75.9388 107.88 75.8875 108.038 75.8892H108.447C108.605 75.8875 108.759 75.9388 108.884 76.0348C109.009 76.1309 109.098 76.2661 109.137 76.4189C109.271 76.9745 109.663 77.8092 110.81 78.1181C111.043 78.1826 111.29 78.1764 111.519 78.1003C113.137 77.5593 114.205 76.6244 114.205 75.5635C114.203 73.8864 111.535 72.5264 108.242 72.5264Z" fill="#F6AF9A"/>
<path d="M106.793 75.0171C106.13 74.9558 105.473 74.8407 104.829 74.6731C104.739 74.6469 104.663 74.5863 104.618 74.5045C104.572 74.4227 104.561 74.3263 104.586 74.2363C104.612 74.1462 104.672 74.0698 104.753 74.0236C104.834 73.9775 104.931 73.9653 105.021 73.9898C105.055 73.9995 108.405 74.917 111.102 73.8469C111.19 73.8123 111.288 73.8138 111.374 73.8512C111.46 73.8886 111.528 73.9588 111.563 74.0463C111.598 74.1338 111.596 74.2315 111.559 74.3179C111.521 74.4043 111.451 74.4723 111.364 74.507C109.796 75.128 108.074 75.1432 106.793 75.0171Z" fill="#E57E73"/>
<path d="M90.8682 60.1781C90.8682 60.1781 90.1292 52.5911 91.69 46.4302C90.1681 42.7162 96.3967 35.5393 106.85 34.9259C115.182 34.6137 118.851 36.5608 119.788 37.1715C120.233 37.3609 120.255 38.6717 120.409 39.0347C120.862 38.7415 121.554 38.0231 122.083 38.5928C127.81 42.9467 126.496 56.7417 126.14 60.0385C126.14 60.0385 124.199 59.8502 122.666 65.8353L121.615 65.4344C121.615 65.4344 123.563 55.8587 121.615 50.7441C118.962 50.2167 118.794 50.4801 118.619 47.3239L117.555 48.1484C116.335 49.4025 114.363 46.573 110.764 47.4781C107.529 48.2177 105.584 49.8818 100.671 49.6962C96.9993 49.5729 96.4973 50.0041 96.4973 50.0041C93.6527 53.018 94.323 61.1183 95.3168 64.1501L94.1093 63.7936C93.8112 62.8896 93.8713 59.9795 90.8682 60.1781Z" fill="#8C4949"/>
<path d="M91.6895 46.4302C93.2686 47.6745 94.7991 48.929 96.4968 50.0046C94.4751 49.6415 92.693 48.1949 91.6895 46.4302Z" fill="#7A4040"/>
<path d="M143.986 95.8007C143.798 112.565 139.05 129.212 138.55 145.988C138.488 148.075 138.496 150.184 138.597 152.252C138.489 155.578 138.658 158.901 139.001 162.19C139.413 166.153 140.08 170.082 140.832 173.997H75.8943C76.181 169.396 76.471 164.791 76.6939 160.152C77.1478 150.679 77.3263 141.154 76.5754 131.692C76.2828 127.882 75.8007 124.132 75.1845 120.397C74.0966 113.318 70.0651 102.367 75.4729 95.9105C76.0761 95.3014 76.7972 94.9606 77.5828 94.5007C77.8127 94.3308 78.0491 94.1696 78.2942 94.0138C80.9451 92.3643 84.184 91.6334 87.1953 91.0102C91.0677 90.032 95.0219 88.9003 98.8473 87.7577C99.7735 99.4471 117.807 99.1062 119.008 87.9021C123.061 89.0848 127.216 90.2257 131.349 91.1395C133.758 91.793 136.485 91.8888 138.913 92.5217C140.932 93.0314 142.842 93.9873 143.986 95.8007Z" fill="#92BF8E"/>
<path d="M142.705 94.314C141.604 93.3878 140.244 92.8695 138.847 92.5222C136.933 92.0456 134.962 91.8876 133.074 91.4943C129.651 90.8294 126.274 89.9357 122.911 89.0171C124.238 100.937 124.621 112.818 124.785 124.959C124.788 125.182 124.791 125.406 124.793 125.63C124.793 125.721 124.796 125.813 124.797 125.905C124.991 141.929 124.722 157.986 125.338 173.999H140.831C140.079 170.084 139.412 166.155 139 162.192C138.658 158.903 138.491 155.579 138.597 152.255C138.497 150.186 138.489 148.077 138.549 145.99C139.049 129.214 143.797 112.566 143.985 95.8028C143.641 95.2408 143.209 94.7381 142.705 94.314Z" fill="#405FAD"/>
<path d="M94.3858 89.0642C93.6121 94.8096 93.1372 100.863 92.864 106.809C91.8285 129.126 93.3124 151.81 91.7993 173.997H75.8939C76.1779 169.39 76.4706 164.78 76.694 160.152C77.1533 150.676 77.3291 141.157 76.5755 131.692C76.2801 127.905 75.8003 124.143 75.1846 120.397C74.1416 113.322 69.337 100.011 76.8157 94.7869C77.1863 94.5407 77.5634 94.313 77.9459 94.0982C78.7947 93.6266 79.6741 93.2125 80.5784 92.8588C85.0249 91.1103 89.8657 90.5893 94.3858 89.0642Z" fill="#405FAD"/>
<path d="M108.82 98.8671C104.066 98.8671 99.6283 96.1405 97.4535 91.8563C97.4312 91.8143 97.4175 91.7682 97.4131 91.7208C97.4088 91.6735 97.4139 91.6257 97.4282 91.5803C97.4426 91.535 97.4658 91.4929 97.4966 91.4566C97.5273 91.4203 97.565 91.3905 97.6074 91.3689C97.6498 91.3474 97.6961 91.3345 97.7436 91.331C97.791 91.3275 97.8387 91.3335 97.8838 91.3487C97.9289 91.3638 97.9705 91.3878 98.0063 91.4192C98.042 91.4507 98.0711 91.4889 98.0919 91.5317C100.188 95.6606 104.507 98.2579 109.101 98.147C113.562 98.0388 117.577 95.4712 119.578 91.4429C119.62 91.3579 119.694 91.2931 119.784 91.2628C119.874 91.2325 119.973 91.2392 120.058 91.2815C120.143 91.3237 120.208 91.3981 120.238 91.4881C120.268 91.5781 120.262 91.6765 120.219 91.7616C118.099 96.029 113.846 98.7497 109.119 98.8633C109.019 98.866 108.919 98.8671 108.82 98.8671Z" fill="#405FAD"/>
<path d="M92.5777 89.379C90.5127 99.4865 90.78 110.193 90.7005 120.524C90.5311 138.309 90.0556 156.212 89.5497 173.996H72.0706C72.6895 162.483 73.2754 150.694 73.3106 139.143C73.3106 138.441 73.3106 137.741 73.3106 137.043C74.1762 125.306 70.4433 104.126 71.9792 100.591C72.9108 98.2071 74.7204 95.9587 76.7546 94.4682C81.0901 91.5971 85.245 90.4383 92.5777 89.379Z" fill="white"/>
<path d="M146.158 107.224C146.217 102.069 146.03 97.896 144.615 94.0846C144.557 94.0462 144.493 94.0046 144.422 93.9608C143.495 93.3857 141.409 92.3437 135.328 90.9241C127.828 89.2119 124.537 89.379 124.537 89.379C124.542 89.4061 124.545 89.4331 124.549 89.4591C126.072 99.5217 126.529 112.127 126.706 124.49C126.969 140.968 126.609 157.567 127.553 173.996H144.987C144.496 164.199 143.972 154.204 143.836 144.36C143.227 131.814 145.474 123.413 146.158 107.224Z" fill="white"/>
<path d="M145.012 173.997H127.562C127.501 171.964 127.442 169.928 127.385 167.891L144.541 164.334C144.683 167.376 144.837 170.858 145.012 173.997Z" fill="#D4E8FC"/>
<path d="M125.804 151.35C125.776 151.35 125.747 151.347 125.719 151.342C125.6 151.319 125.495 151.251 125.428 151.151C125.36 151.051 125.334 150.929 125.356 150.81C125.368 150.747 126.553 144.376 126.229 136.398C126.226 136.338 126.236 136.279 126.256 136.222C126.277 136.166 126.309 136.115 126.349 136.071C126.39 136.027 126.438 135.991 126.493 135.966C126.547 135.941 126.605 135.927 126.665 135.925C126.725 135.922 126.785 135.932 126.841 135.952C126.897 135.973 126.948 136.004 126.992 136.045C127.036 136.085 127.072 136.134 127.097 136.188C127.122 136.243 127.136 136.301 127.138 136.361C127.468 144.448 126.263 150.914 126.251 150.979C126.231 151.084 126.176 151.178 126.094 151.245C126.013 151.313 125.91 151.35 125.804 151.35Z" fill="#323C7A"/>
<path d="M127.764 151.331C127.461 153.75 125.466 155.795 125.466 155.795C125.466 155.795 124.618 155.804 124.492 155.788C123.016 155.603 122.088 153.308 122.42 150.661C122.751 148.015 124.216 146.02 125.692 146.205C125.733 146.21 126.414 146.2 126.414 146.2C126.414 146.2 128.087 148.758 127.764 151.331Z" fill="#293263"/>
<path d="M128.537 151.33C128.869 148.683 127.941 146.388 126.464 146.203C124.988 146.018 123.523 148.014 123.192 150.66C122.86 153.306 123.788 155.601 125.264 155.786C126.74 155.971 128.206 153.976 128.537 151.33Z" fill="#323C7A"/>
<path d="M145.886 169.185C142.784 156.472 139.674 143.704 136.581 131.019C135.836 127.961 135.151 125.155 134.436 122.227C134.343 121.842 134.135 121.494 133.841 121.228C133.547 120.963 133.179 120.792 132.787 120.738C132.254 120.663 131.796 120.846 131.251 120.963C120.361 123.559 108.388 126.657 97.4613 129.21C96.9525 129.334 96.514 129.656 96.2421 130.103C95.9702 130.551 95.8872 131.088 96.0114 131.597C96.4047 133.183 97.2016 136.52 97.7507 138.738C100.412 149.632 103.642 162.883 106.35 173.999H134.486C134.693 173.949 134.843 173.912 134.847 173.912C135.507 173.738 136.125 173.587 136.865 173.409C139.259 172.832 142.692 172.075 144.856 171.411C145.663 171.029 146.106 170.086 145.886 169.185Z" fill="#303C72"/>
<path d="M144.895 171.395C142.664 171.98 137.928 173.141 135.231 173.808L134.466 173.996H106.349C105.704 171.356 104.739 167.395 104.192 165.152C114.582 159.212 125.978 152.69 136.354 146.761L136.924 146.437C137.761 146.208 139.227 145.801 140.123 145.556C141.379 150.704 142.783 156.465 144.062 161.705C144.524 163.604 144.858 164.969 145.294 166.758C145.455 167.417 145.615 168.075 145.776 168.732C146.147 169.733 145.864 170.908 144.895 171.395Z" fill="#183261"/>
<path d="M141.542 165.372L109.775 173.117L109.769 173.119L106.131 158.2L99.5271 131.119L121.799 125.688L131.278 123.376L131.3 123.371L141.542 165.372Z" fill="#DEECFA"/>
<path d="M131.299 123.371L121.674 136.691L106.131 158.2L99.5271 131.119L131.299 123.371Z" fill="#FCFFFF"/>
<path d="M103.85 130.065C103.452 132.897 102.476 135.432 100.962 136.995L100.699 135.917C101.799 134.476 102.518 132.492 102.858 130.307L103.85 130.065Z" fill="#DEECFA"/>
<path d="M122.864 125.974L108.717 129.423C108.633 129.444 108.545 129.448 108.459 129.434C108.373 129.421 108.291 129.391 108.216 129.346C108.142 129.3 108.077 129.241 108.026 129.171C107.975 129.101 107.938 129.021 107.917 128.936L107.467 127.088C107.399 126.811 107.445 126.519 107.592 126.276C107.74 126.032 107.978 125.857 108.255 125.789L108.309 125.776L121.602 122.534C121.739 122.501 121.881 122.494 122.02 122.516C122.16 122.537 122.294 122.586 122.414 122.659C122.535 122.733 122.64 122.829 122.723 122.943C122.806 123.057 122.867 123.186 122.9 123.323L123.351 125.174C123.372 125.259 123.376 125.347 123.362 125.433C123.349 125.518 123.319 125.601 123.274 125.675C123.228 125.75 123.169 125.814 123.099 125.866C123.028 125.917 122.949 125.954 122.864 125.974Z" fill="#B3D2FF"/>
<path d="M116.337 127.566L112.507 128.499L108.307 125.776L112.138 124.843L116.337 127.566Z" fill="#C2DBFF"/>
<path d="M120.435 126.566L118.393 127.063L114.195 124.341C114.546 124.255 115.915 123.921 116.238 123.842L120.435 126.566Z" fill="#C2DBFF"/>
<path d="M151.579 145.535C153.58 145.35 155.572 145.963 157.122 147.24C158.673 148.518 159.656 150.356 159.856 152.355C160.057 154.354 159.46 156.351 158.195 157.912C156.93 159.472 155.099 160.469 153.102 160.686C153.102 160.686 144.651 161.768 135.091 162.519C125.53 163.271 114.421 163.344 114.421 163.344C113.867 163.413 113.304 163.37 112.767 163.219C112.23 163.067 111.728 162.81 111.292 162.462C110.855 162.114 110.493 161.682 110.226 161.192C109.959 160.701 109.792 160.163 109.737 159.607C109.681 159.052 109.736 158.491 109.901 157.957C110.065 157.424 110.334 156.928 110.692 156.5C111.05 156.072 111.491 155.72 111.987 155.464C112.484 155.209 113.026 155.055 113.583 155.013C113.583 155.013 121.817 152.849 128.997 150.435C136.176 148.021 145.267 146.05 151.579 145.535Z" fill="#F6AF9A"/>
<path d="M114.691 153.181C114.691 153.181 109.653 150.259 108.585 149.624C107.517 148.989 105.099 149.305 104.368 149.624C103.637 149.943 102.34 151.857 102.34 151.857C102.34 151.857 112.069 153.957 114.691 153.181Z" fill="#EA9A88"/>
<path d="M119.465 153.379C119.465 153.379 115.128 153.234 113.047 152.855C110.967 152.475 107.367 150.772 105.963 150.64C104.559 150.508 98.9904 152.651 98.147 153.182C97.3036 153.714 97.8657 155.511 98.7091 155.541C98.7091 155.541 97.7174 158.325 99.6191 158.943C99.6191 158.943 99.1029 161.637 100.902 162.089C100.902 162.089 100.677 163.428 102.477 164.587C103.033 164.938 103.625 165.228 104.244 165.453L104.218 164.425C104.218 164.425 106.806 164.116 107.706 164.257C108.606 164.397 112.148 165.292 114.284 164.901C116.421 164.51 118.036 164.13 120.219 163.792C122.403 163.455 119.465 153.379 119.465 153.379Z" fill="#F6AF9A"/>
<path d="M98.7085 155.538C100.88 154.841 104.526 152.432 106.519 153.781C103.863 153.68 101.119 155.132 98.7085 155.538Z" fill="#E57E73"/>
<path d="M99.6196 158.94C102.128 158.337 105.06 156.466 107.536 157.421C104.991 157.66 102.005 158.639 99.6196 158.94Z" fill="#E57E73"/>
<path d="M100.903 162.089C103.38 161.512 106.313 159.547 108.714 160.77C106.069 160.748 103.345 161.811 100.903 162.089Z" fill="#E57E73"/>
<path d="M161.175 158.921C161.175 158.921 159.322 161.753 149.127 163.499C139.84 165.089 120.534 165.825 120.534 165.825C120.534 165.825 119.542 161.536 119.265 158.616C118.989 155.695 119.265 152.423 119.265 152.423C119.265 152.423 120.357 151.807 124.099 150.708C127.841 149.61 140.427 145.343 147.985 143.084C151.163 142.134 154.691 142.639 157.488 144.115C161.346 146.148 162.921 154.466 161.175 158.921Z" fill="white"/>
</svg>
